<svg width="24" height="24" viewBox="0 0 24 24" fill="none" xmlns="http://www.w3.org/2000/svg"><path d="M0.019043 4.83285C0.019043 4.10489 0.609167 3.51477 1.33712 3.51477H3.09456C3.82251 3.51477 4.41264 4.10489 4.41264 4.83285C4.41264 5.5608 3.82251 6.15093 3.09456 6.15093H1.33712C0.609167 6.15093 0.019043 5.5608 0.019043 4.83285Z" fill="white"/><path d="M0.019043 11.8628C0.019043 11.1348 0.609167 10.5447 1.33712 10.5447H3.09456C3.82251 10.5447 4.41264 11.1348 4.41264 11.8628C4.41264 12.5907 3.82251 13.1808 3.09456 13.1808H1.33712C0.609167 13.1808 0.019043 12.5907 0.019043 11.8628Z" fill="white"/><path d="M0.019043 18.8923C0.019043 18.1643 0.609167 17.5742 1.33712 17.5742H3.09456C3.82251 17.5742 4.41264 18.1643 4.41264 18.8923C4.41264 19.6202 3.82251 20.2104 3.09456 20.2104H1.33712C0.609167 20.2104 0.019043 19.6202 0.019043 18.8923Z" fill="white"/><path fill-rule="evenodd" clip-rule="evenodd" d="M2.65527 3.51493V6.15108H3.09466C3.82261 6.15108 4.41274 5.56096 4.41274 4.83301C4.41274 4.10505 3.82261 3.51493 3.09466 3.51493H2.65527ZM3.09466 1.75749H3.09349C3.68239 0.708669 4.80532 0 6.09377 0H20.4134C22.3125 0 23.8519 1.53947 23.8519 3.4385V20.2869C23.8519 22.1859 22.3125 23.7254 20.4134 23.7254H6.09377C4.80535 23.7254 3.68244 23.0168 3.09353 21.968H3.09464C4.7932 21.968 6.17016 20.591 6.17016 18.8925C6.17016 17.1939 4.7932 15.817 3.09464 15.817H2.65527V14.9383H3.09464C4.7932 14.9383 6.17016 13.5614 6.17016 11.8628C6.17016 10.1643 4.7932 8.78731 3.09464 8.78731H2.65527V7.90852H3.09466C4.79322 7.90852 6.17017 6.53157 6.17017 4.83301C6.17017 3.13445 4.79322 1.75749 3.09466 1.75749ZM3.09464 20.2105H2.65527V17.5744H3.09464C3.8226 17.5744 4.41272 18.1645 4.41272 18.8925C4.41272 19.6204 3.8226 20.2105 3.09464 20.2105ZM3.09464 13.1809H2.65527V10.5448H3.09464C3.8226 10.5448 4.41272 11.1349 4.41272 11.8628C4.41272 12.5908 3.8226 13.1809 3.09464 13.1809ZM9.90473 3.95423C9.2981 3.95423 8.80633 4.446 8.80633 5.05263C8.80633 5.65926 9.2981 6.15103 9.90473 6.15103H19.1313C19.7379 6.15103 20.2297 5.65926 20.2297 5.05263C20.2297 4.446 19.7379 3.95423 19.1313 3.95423H9.90473ZM8.80633 10.3249C8.80633 9.71831 9.2981 9.22654 9.90473 9.22654H19.1313C19.7379 9.22654 20.2297 9.71831 20.2297 10.3249C20.2297 10.9316 19.7379 11.4233 19.1313 11.4233H9.90473C9.2981 11.4233 8.80633 10.9316 8.80633 10.3249ZM9.90473 14.4989C9.2981 14.4989 8.80633 14.9906 8.80633 15.5973C8.80633 16.2039 9.2981 16.6957 9.90473 16.6957H16.4951C17.1017 16.6957 17.5935 16.2039 17.5935 15.5973C17.5935 14.9906 17.1017 14.4989 16.4951 14.4989H9.90473Z" fill="white"/></svg>