<svg width="46" height="46" viewBox="0 0 46 46" fill="none" xmlns="http://www.w3.org/2000/svg"><g clip-path="url(#clip0)"><line x1="18.4199" y1="25.0669" x2="27.0802" y2="20.0669" stroke="#AFAFAF" stroke-width="3"/><rect x="19.9639" y="9.7417" width="9" height="26" rx="4.5" transform="rotate(-30 19.9639 9.7417)" fill="#1CB0F6"/><rect x="5.24219" y="18.2417" width="9" height="26" rx="4.5" transform="rotate(-30 5.24219 18.2417)" fill="#1CB0F6"/><rect x="28.0264" y="9.70581" width="9" height="18" rx="4.5" transform="rotate(-30 28.0264 9.70581)" fill="#1CB0F6"/><rect x="1.17969" y="25.2058" width="9" height="18" rx="4.5" transform="rotate(-30 1.17969 25.2058)" fill="#1CB0F6"/><rect opacity="0.3" x="5.17969" y="26.2058" width="3" height="5" rx="1.5" transform="rotate(-30 5.17969 26.2058)" fill="white"/><rect opacity="0.3" x="33.1797" y="11.2058" width="3" height="5" rx="1.5" transform="rotate(-30 33.1797 11.2058)" fill="white"/><rect opacity="0.3" x="9.17969" y="19.2058" width="3" height="6" rx="1.5" transform="rotate(-30 9.17969 19.2058)" fill="white"/><rect opacity="0.3" x="24.1797" y="11.2058" width="3" height="6" rx="1.5" transform="rotate(-30 24.1797 11.2058)" fill="white"/></g><defs><clipPath id="clip0"><rect width="46" height="46" fill="white"/></clipPath></defs></svg>